<svg xmlns="http://www.w3.org/2000/svg" viewBox="0 0 1024 1024">
  <!-- Fundo com gradiente -->
  <defs>
    <linearGradient id="bg-gradient" x1="0%" y1="0%" x2="100%" y2="100%">
      <stop offset="0%" stop-color="#9333ea" />
      <stop offset="100%" stop-color="#db2777" />
    </linearGradient>
    <filter id="shadow" x="-20%" y="-20%" width="140%" height="140%">
      <feGaussianBlur in="SourceAlpha" stdDeviation="20" />
      <feOffset dx="0" dy="10" result="offsetblur" />
      <feComponentTransfer>
        <feFuncA type="linear" slope="0.3" />
      </feComponentTransfer>
      <feMerge>
        <feMergeNode />
        <feMergeNode in="SourceGraphic" />
      </feMerge>
    </filter>
  </defs>
  
  <!-- Fundo arredondado -->
  <rect width="1024" height="1024" rx="230" ry="230" fill="url(#bg-gradient)" />
  
  <!-- Círculo externo da roleta -->
  <circle cx="512" cy="512" r="350" fill="#f5f3ff" stroke="#9333ea" stroke-width="30" filter="url(#shadow)" />
  
  <!-- Setores da roleta -->
  <path d="M 512 512 L 512 162 A 350 350 0 0 1 812 362 Z" fill="#a855f7" />
  <path d="M 512 512 L 812 362 A 350 350 0 0 1 812 662 Z" fill="#d946ef" />
  <path d="M 512 512 L 812 662 A 350 350 0 0 1 512 862 Z" fill="#ec4899" />
  <path d="M 512 512 L 512 862 A 350 350 0 0 1 212 662 Z" fill="#f472b6" />
  <path d="M 512 512 L 212 662 A 350 350 0 0 1 212 362 Z" fill="#8b5cf6" />
  <path d="M 512 512 L 212 362 A 350 350 0 0 1 512 162 Z" fill="#7c3aed" />
  
  <!-- Círculo central -->
  <circle cx="512" cy="512" r="120" fill="white" stroke="#9333ea" stroke-width="15" />
  
  <!-- Indicador triangular -->
  <polygon points="512,130 482,180 542,180" fill="#fcd34d" />
  
  <!-- Reflexão (brilho) -->
  <circle cx="512" cy="512" r="90" fill="none" stroke="rgba(255,255,255,0.6)" stroke-width="10" />
  
  <!-- Texto "R" estilizado no centro -->
  <text x="512" y="542" font-family="Arial" font-size="120" font-weight="bold" fill="#7e22ce" text-anchor="middle">R</text>
</svg>